<svg width="12" height="12" viewBox="0 0 12 12" fill="none" xmlns="http://www.w3.org/2000/svg">
<path d="M8.25 9.125H7.495C7.29 9.125 7.12 8.955 7.12 8.75C7.12 8.545 7.29 8.375 7.495 8.375H8.25C9.56 8.375 10.625 7.31 10.625 6C10.625 4.69 9.56 3.625 8.25 3.625H7.5C7.295 3.625 7.125 3.455 7.125 3.25C7.125 3.045 7.29 2.875 7.5 2.875H8.25C9.975 2.875 11.375 4.275 11.375 6C11.375 7.725 9.975 9.125 8.25 9.125Z" fill="#C02626"/>
<path d="M4.5 9.125H3.75C2.025 9.125 0.625 7.725 0.625 6C0.625 4.275 2.025 2.875 3.75 2.875H4.5C4.705 2.875 4.875 3.045 4.875 3.25C4.875 3.455 4.705 3.625 4.5 3.625H3.75C2.44 3.625 1.375 4.69 1.375 6C1.375 7.31 2.44 8.375 3.75 8.375H4.5C4.705 8.375 4.875 8.545 4.875 8.75C4.875 8.955 4.705 9.125 4.5 9.125Z" fill="#C02626"/>
<path d="M8 6.375H4C3.795 6.375 3.625 6.205 3.625 6C3.625 5.795 3.795 5.625 4 5.625H8C8.205 5.625 8.375 5.795 8.375 6C8.375 6.205 8.205 6.375 8 6.375Z" fill="#C02626"/>
</svg>
