<svg width="38" height="38" viewBox="0 0 38 38" fill="none" xmlns="http://www.w3.org/2000/svg">
<rect width="38" height="38" rx="4" fill="#DC3545"/>
<path d="M7.75 21.85C7.94891 21.85 8.13968 21.929 8.28033 22.0696C8.42098 22.2103 8.5 22.4011 8.5 22.6V26.35C8.5 26.7478 8.65804 27.1293 8.93934 27.4106C9.22064 27.6919 9.60218 27.85 10 27.85H28C28.3978 27.85 28.7794 27.6919 29.0607 27.4106C29.342 27.1293 29.5 26.7478 29.5 26.35V22.6C29.5 22.4011 29.579 22.2103 29.7197 22.0696C29.8603 21.929 30.0511 21.85 30.25 21.85C30.4489 21.85 30.6397 21.929 30.7803 22.0696C30.921 22.2103 31 22.4011 31 22.6V26.35C31 27.1456 30.6839 27.9087 30.1213 28.4713C29.5587 29.0339 28.7956 29.35 28 29.35H10C9.20435 29.35 8.44129 29.0339 7.87868 28.4713C7.31607 27.9087 7 27.1456 7 26.35V22.6C7 22.4011 7.07902 22.2103 7.21967 22.0696C7.36032 21.929 7.55109 21.85 7.75 21.85Z" fill="white"/>
<path d="M18.469 24.781C18.5386 24.8508 18.6214 24.9063 18.7125 24.9441C18.8036 24.9819 18.9013 25.0013 19 25.0013C19.0986 25.0013 19.1963 24.9819 19.2874 24.9441C19.3785 24.9063 19.4613 24.8508 19.531 24.781L24.031 20.281C24.1718 20.1402 24.2509 19.9492 24.2509 19.75C24.2509 19.5508 24.1718 19.3598 24.031 19.219C23.8901 19.0782 23.6991 18.9991 23.5 18.9991C23.3008 18.9991 23.1098 19.0782 22.969 19.219L19.75 22.4395V9.25C19.75 9.05109 19.671 8.86032 19.5303 8.71967C19.3896 8.57902 19.1989 8.5 19 8.5C18.8011 8.5 18.6103 8.57902 18.4696 8.71967C18.329 8.86032 18.25 9.05109 18.25 9.25V22.4395L15.031 19.219C14.8901 19.0782 14.6991 18.9991 14.5 18.9991C14.3008 18.9991 14.1098 19.0782 13.969 19.219C13.8281 19.3598 13.749 19.5508 13.749 19.75C13.749 19.9492 13.8281 20.1402 13.969 20.281L18.469 24.781Z" fill="white"/>
</svg>
