<svg width="16" height="16" viewBox="0 0 16 16" fill="none" xmlns="http://www.w3.org/2000/svg">
<path d="M11.0599 6H9.99992V2.66667C9.99992 2.3 9.69992 2 9.33325 2H6.66658C6.29992 2 5.99992 2.3 5.99992 2.66667V6H4.93992C4.34659 6 4.04659 6.72 4.46659 7.14L7.52659 10.2C7.78658 10.46 8.20658 10.46 8.46658 10.2L11.5266 7.14C11.9466 6.72 11.6533 6 11.0599 6ZM3.33325 12.6667C3.33325 13.0333 3.63325 13.3333 3.99992 13.3333H11.9999C12.3666 13.3333 12.6666 13.0333 12.6666 12.6667C12.6666 12.3 12.3666 12 11.9999 12H3.99992C3.63325 12 3.33325 12.3 3.33325 12.6667Z" fill="#C02626"/>
</svg>
