<svg width="12" height="12" viewBox="0 0 12 12" fill="none" xmlns="http://www.w3.org/2000/svg">
<path d="M5.99997 4.37499C5.79497 4.37499 5.62497 4.20499 5.62497 3.99999V1.90499L5.26497 2.26499C5.11997 2.40999 4.87997 2.40999 4.73497 2.26499C4.58997 2.11999 4.58997 1.87999 4.73497 1.73499L5.73497 0.734994C5.83997 0.629994 6.00497 0.594994 6.14497 0.654994C6.28497 0.709994 6.37497 0.849994 6.37497 0.999994V3.99999C6.37497 4.20499 6.20497 4.37499 5.99997 4.37499Z" fill="#C02626"/>
<path d="M6.99997 2.37497C6.90497 2.37497 6.80997 2.33997 6.73497 2.26497L5.73497 1.26497C5.58997 1.11997 5.58997 0.879971 5.73497 0.734971C5.87997 0.589971 6.11997 0.589971 6.26497 0.734971L7.26497 1.73497C7.40997 1.87997 7.40997 2.11997 7.26497 2.26497C7.18997 2.33997 7.09497 2.37497 6.99997 2.37497Z" fill="#C02626"/>
<path d="M8 11.375H4C1.125 11.375 1.125 9.85 1.125 8.5V8C1.125 6.885 1.125 5.625 3.5 5.625C4.095 5.625 4.315 5.77 4.625 6C4.64 6.015 4.66 6.025 4.675 6.045L5.185 6.585C5.615 7.04 6.395 7.04 6.825 6.585L7.335 6.045C7.35 6.03 7.365 6.015 7.385 6C7.695 5.765 7.915 5.625 8.51 5.625C10.885 5.625 10.885 6.885 10.885 8V8.5C10.875 10.41 9.91 11.375 8 11.375ZM3.5 6.375C1.875 6.375 1.875 6.885 1.875 8V8.5C1.875 9.87 1.875 10.625 4 10.625H8C9.49 10.625 10.125 9.99 10.125 8.5V8C10.125 6.885 10.125 6.375 8.5 6.375C8.14 6.375 8.065 6.42 7.85 6.58L7.365 7.095C7.005 7.475 6.52 7.685 6 7.685C5.48 7.685 4.995 7.475 4.635 7.095L4.15 6.58C3.935 6.42 3.86 6.375 3.5 6.375Z" fill="#C02626"/>
<path d="M2.5 6.37511C2.295 6.37511 2.125 6.20511 2.125 6.00011V5.00011C2.125 4.03011 2.125 2.82511 3.965 2.65011C4.165 2.62511 4.355 2.78011 4.375 2.99011C4.395 3.19511 4.245 3.38011 4.035 3.40011C2.875 3.50511 2.875 3.97511 2.875 5.00011V6.00011C2.875 6.20511 2.705 6.37511 2.5 6.37511Z" fill="#C02626"/>
<path d="M9.49996 6.37511C9.29496 6.37511 9.12496 6.20511 9.12496 6.00011V5.00011C9.12496 3.97511 9.12496 3.50511 7.96496 3.39511C7.75996 3.37511 7.60996 3.19011 7.62996 2.98511C7.64996 2.78011 7.82996 2.62511 8.03996 2.65011C9.87996 2.82511 9.87996 4.03011 9.87996 5.00011V6.00011C9.87496 6.20511 9.70496 6.37511 9.49996 6.37511Z" fill="#C02626"/>
</svg>
